<svg width="69" height="54" viewBox="0 0 69 54" fill="none" xmlns="http://www.w3.org/2000/svg">
<path d="M29.2724 54C43.5638 53.7824 63.5652 46.2398 57.3948 35.2347C51.2397 24.2569 49.6096 10.7657 29.2724 10.4193C8.93517 10.7657 7.30507 24.2569 1.14996 35.2347C-5.02042 46.2398 14.9809 53.7824 29.2724 54Z" fill="#81A1C1"/>
<path d="M36.702 46.6422C51.006 46.4243 71.0249 38.8711 64.8491 27.8505C58.6886 16.8571 57.0571 3.34688 36.702 3C16.3469 3.34688 14.7154 16.8571 8.55486 27.8505C2.37906 38.8711 22.398 46.4243 36.702 46.6422Z" stroke="#4C566A" stroke-width="6"/>
<path d="M44.2097 20.3795V26.6689" stroke="#4C566A" stroke-width="6" stroke-linecap="round"/>
<path d="M29.1943 20.3795V26.6689" stroke="#4C566A" stroke-width="6" stroke-linecap="round"/>
</svg>
