<svg width="133" height="105" viewBox="0 0 133 105" fill="none" xmlns="http://www.w3.org/2000/svg">
<path d="M76.2295 105C48.5128 104.573 9.72229 89.784 21.6891 68.2053C33.6263 46.6801 36.7877 20.2268 76.2295 19.5476C115.671 20.2268 118.833 46.6801 130.77 68.2053C142.737 89.784 103.946 104.573 76.2295 105Z" fill="#EBCB8B"/>
<path d="M61.8204 90.573C34.0793 90.1457 -4.74525 75.3355 7.23206 53.7264C19.1797 32.1708 22.3439 5.68016 61.8204 5C101.297 5.68016 104.461 32.1708 116.409 53.7264C128.386 75.3355 89.5615 90.1457 61.8204 90.573Z" stroke="#4C566A" stroke-width="10"/>
<path d="M47.2603 39.0773V51.4096" stroke="#4C566A" stroke-width="10" stroke-linecap="round"/>
<path d="M76.3809 39.0773V51.4095" stroke="#4C566A" stroke-width="10" stroke-linecap="round"/>
</svg>
