<svg width="96" height="75" viewBox="0 0 96 75" fill="none" xmlns="http://www.w3.org/2000/svg">
<path d="M40.8039 75C60.7252 74.697 88.6059 64.1966 80.0048 48.8758C71.4249 33.5929 69.1527 14.811 40.8039 14.3288C12.455 14.811 10.1828 33.5929 1.60292 48.8758C-6.99821 64.1966 20.8825 74.697 40.8039 75Z" fill="#B48EAD"/>
<path d="M51.1603 64.7568C71.0992 64.4534 99.0044 53.9382 90.3957 38.5957C81.8083 23.2913 79.5341 4.48292 51.1603 4C22.7866 4.48292 20.5123 23.2913 11.925 38.5957C3.31626 53.9382 31.2214 64.4534 51.1603 64.7568Z" stroke="#4C566A" stroke-width="8"/>
<path d="M61.6255 28.1949V36.9508" stroke="#4C566A" stroke-width="8" stroke-linecap="round"/>
<path d="M40.6951 28.1949V36.9508" stroke="#4C566A" stroke-width="8" stroke-linecap="round"/>
</svg>
