<svg width="360" height="749" viewBox="0 0 360 749" fill="none" xmlns="http://www.w3.org/2000/svg">
<path d="M783.876 339.758C710.27 457.857 554.867 441.262 431.43 396.715C307.992 352.167 230.837 334.642 122.856 379.37C14.8752 424.097 -119.081 530.137 -148.029 593.315" stroke="#ECEFF4" stroke-width="110" stroke-linecap="round"/>
<path d="M738.369 221.268C629.629 300.184 486.624 338.468 355.042 317.148C223.461 295.829 184.412 303.334 93.7573 320.817C3.10247 338.3 -192.838 419.755 -223.839 477.447" stroke="#ECEFF4" stroke-width="90"/>
<path d="M700.876 211.758C627.27 329.857 471.867 313.262 348.43 268.715C224.992 224.167 147.837 206.642 39.8563 251.37C-68.1248 296.097 -202.081 402.137 -231.029 465.315" stroke="#ECEFF4" stroke-width="110" stroke-linecap="round"/>
</svg>
