<svg width="360" height="763" viewBox="0 0 360 763" fill="none" xmlns="http://www.w3.org/2000/svg">
<path d="M821.369 360.268C712.629 439.184 569.624 477.468 438.042 456.148C306.461 434.829 267.412 442.334 176.757 459.817C86.1025 477.3 -109.838 558.755 -140.839 616.447" stroke="#ECEFF4" stroke-width="90"/>
<path d="M783.876 350.758C710.27 468.857 554.867 452.263 431.43 407.715C307.992 363.167 230.837 345.643 122.856 390.37C14.8752 435.097 -119.081 541.137 -148.029 604.315" stroke="#ECEFF4" stroke-width="110" stroke-linecap="round"/>
<path d="M738.369 232.268C629.629 311.184 486.624 349.468 355.042 328.148C223.461 306.829 184.412 314.334 93.7573 331.817C3.10247 349.3 -192.838 430.755 -223.839 488.447" stroke="#ECEFF4" stroke-width="90"/>
<path d="M700.876 222.758C627.27 340.857 471.867 324.262 348.43 279.715C224.992 235.167 147.837 217.642 39.8563 262.37C-68.1248 307.097 -202.081 413.137 -231.029 476.315" stroke="#ECEFF4" stroke-width="110" stroke-linecap="round"/>
</svg>
