<svg width="49" height="39" viewBox="0 0 49 39" fill="none" xmlns="http://www.w3.org/2000/svg">
<path d="M28.1546 38.2957C17.9773 38.1395 3.73395 32.7279 8.12801 24.832C12.5112 16.9556 13.672 7.27605 28.1546 7.02752C42.6371 7.27605 43.798 16.9556 48.1811 24.832C52.5752 32.7279 38.3318 38.1395 28.1546 38.2957Z" fill="#B48EAD"/>
<path d="M22.8637 33.0166C12.6776 32.8603 -1.57833 27.441 2.81958 19.534C7.20661 11.6465 8.36846 1.95323 22.8637 1.70435C37.359 1.95323 38.5209 11.6465 42.9079 19.534C47.3058 27.441 33.0499 32.8603 22.8637 33.0166Z" stroke="#4C566A" stroke-width="3"/>
<path d="M17.5174 14.1737V18.6862" stroke="#4C566A" stroke-width="3" stroke-linecap="round"/>
<path d="M28.2101 14.1737V18.6862" stroke="#4C566A" stroke-width="3" stroke-linecap="round"/>
</svg>
