<svg width="285" height="162" viewBox="0 0 285 162" fill="none" xmlns="http://www.w3.org/2000/svg">
<path d="M91.2724 162C105.564 161.782 125.565 154.24 119.395 143.235C113.24 132.257 111.61 118.766 91.2724 118.419C70.9352 118.766 69.3051 132.257 63.15 143.235C56.9796 154.24 76.9809 161.782 91.2724 162Z" fill="#81A1C1"/>
<path d="M98.702 154.642C113.006 154.424 133.025 146.871 126.849 135.85C120.689 124.857 119.057 111.347 98.702 111C78.3469 111.347 76.7154 124.857 70.5549 135.85C64.3791 146.871 84.398 154.424 98.702 154.642Z" stroke="#4C566A" stroke-width="6"/>
<path d="M106.21 128.379V134.669" stroke="#4C566A" stroke-width="6" stroke-linecap="round"/>
<path d="M91.1943 128.379V134.669" stroke="#4C566A" stroke-width="6" stroke-linecap="round"/>
<path d="M228.23 125C200.513 124.573 161.722 109.784 173.689 88.2053C185.626 66.6801 188.788 40.2268 228.23 39.5476C267.671 40.2268 270.833 66.6801 282.77 88.2053C294.737 109.784 255.946 124.573 228.23 125Z" fill="#EBCB8B"/>
<path d="M213.82 110.573C186.079 110.146 147.255 95.3355 159.232 73.7264C171.18 52.1708 174.344 25.6802 213.82 25C253.297 25.6802 256.461 52.1708 268.409 73.7264C280.386 95.3355 241.561 110.146 213.82 110.573Z" stroke="#4C566A" stroke-width="10"/>
<path d="M199.26 59.0773V71.4096" stroke="#4C566A" stroke-width="10" stroke-linecap="round"/>
<path d="M228.381 59.0773V71.4095" stroke="#4C566A" stroke-width="10" stroke-linecap="round"/>
<path d="M40.8039 75C60.7252 74.697 88.6059 64.1966 80.0048 48.8758C71.4249 33.5929 69.1527 14.811 40.8039 14.3288C12.455 14.811 10.1828 33.5929 1.60292 48.8758C-6.99822 64.1966 20.8825 74.697 40.8039 75Z" fill="#B48EAD"/>
<path d="M51.1603 64.7568C71.0992 64.4534 99.0044 53.9382 90.3957 38.5957C81.8083 23.2913 79.5341 4.48292 51.1603 4C22.7866 4.48292 20.5123 23.2913 11.925 38.5957C3.31626 53.9382 31.2214 64.4534 51.1603 64.7568Z" stroke="#4C566A" stroke-width="8"/>
<path d="M61.6255 28.1949V36.9508" stroke="#4C566A" stroke-width="8" stroke-linecap="round"/>
<path d="M40.6951 28.1949V36.9508" stroke="#4C566A" stroke-width="8" stroke-linecap="round"/>
</svg>
