<svg width="181" height="142" viewBox="0 0 181 142" fill="none" xmlns="http://www.w3.org/2000/svg">
<path d="M103.828 142C66.1501 141.424 13.4193 121.458 29.6867 92.3272C45.9137 63.2681 50.2113 27.5562 103.828 26.6393C157.444 27.5562 161.741 63.2681 177.968 92.3272C194.236 121.458 141.505 141.424 103.828 142Z" fill="#EBCB8B"/>
<path d="M84.2402 122.524C46.5297 121.947 -6.24745 101.953 10.0342 72.7806C26.2755 43.6806 30.5769 7.91822 84.2402 7C137.904 7.91822 142.205 43.6806 158.446 72.7806C174.728 101.953 121.951 121.947 84.2402 122.524Z" stroke="#4C566A" stroke-width="13"/>
<path d="M64.4474 53.0044V69.6529" stroke="#4C566A" stroke-width="13" stroke-linecap="round"/>
<path d="M104.033 53.0043V69.6528" stroke="#4C566A" stroke-width="13" stroke-linecap="round"/>
</svg>
