<svg width="361" height="284" viewBox="0 0 361 284" fill="none" xmlns="http://www.w3.org/2000/svg">
<path d="M206.222 283.326C131.036 282.173 25.8099 242.193 58.2719 183.86C90.6536 125.672 99.2295 54.1621 206.222 52.326C313.215 54.1621 321.791 125.672 354.173 183.86C386.635 242.193 281.409 282.173 206.222 283.326Z" fill="#81A1C1"/>
<path d="M167.135 244.326C91.8828 243.171 -13.4357 203.135 19.0549 144.72C51.465 86.4497 60.0484 14.8387 167.135 13C274.222 14.8387 282.806 86.4497 315.216 144.72C347.706 203.135 242.388 243.171 167.135 244.326Z" stroke="#4C566A" stroke-width="25"/>
<path d="M127.638 105.12V138.457" stroke="#4C566A" stroke-width="25" stroke-linecap="round"/>
<path d="M206.633 105.12V138.457" stroke="#4C566A" stroke-width="25" stroke-linecap="round"/>
</svg>
