<svg width="234" height="184" viewBox="0 0 234 184" fill="none" xmlns="http://www.w3.org/2000/svg">
<path d="M99.7919 184C148.513 183.253 216.699 157.372 195.664 119.609C174.68 81.9402 169.123 35.647 99.7919 34.4584C30.4606 35.647 24.9034 81.9402 3.92009 119.609C-17.1153 157.372 51.0711 183.253 99.7919 184Z" fill="#B48EAD"/>
<path d="M125.12 158.753C173.884 158.005 242.13 132.087 221.076 94.2712C200.075 56.5489 194.513 10.1903 125.12 9C55.7281 10.1903 50.166 56.5489 29.1643 94.2712C8.11043 132.087 76.3568 158.005 125.12 158.753Z" stroke="#4C566A" stroke-width="17"/>
<path d="M150.715 68.6354V90.2168" stroke="#4C566A" stroke-width="17" stroke-linecap="round"/>
<path d="M99.526 68.6353V90.2167" stroke="#4C566A" stroke-width="17" stroke-linecap="round"/>
</svg>
